<svg width="88" height="94" viewBox="0 0 88 94" fill="none" xmlns="http://www.w3.org/2000/svg">
<path fill-rule="evenodd" clip-rule="evenodd" d="M42.4661 0.24198C42.2291 0.478965 42.2203 0.530356 42.2426 1.5663C42.2552 2.15901 42.225 2.68446 42.1755 2.7338C42.1259 2.78314 41.6008 2.89414 41.0086 2.98028C38.4119 3.35832 36.2288 4.11998 33.9118 5.45644C32.2389 6.42141 31.332 7.10036 29.962 8.41362C28.5457 9.77131 27.6108 10.9553 26.4064 12.9164C26.0606 13.4798 25.3956 14.798 25.3956 14.9205C25.3956 14.9456 25.2871 15.2034 25.1546 15.4932C24.409 17.1233 23.7457 20.133 23.7217 21.9948C23.7051 23.2824 23.7565 23.2271 22.4679 23.3449C21.4919 23.4341 21.3373 23.4735 21.175 23.6739C20.9199 23.9889 20.9445 24.3321 21.2437 24.6312C21.4946 24.8821 21.5064 24.8837 22.5896 24.8202C23.1907 24.785 25.004 24.6913 26.6192 24.612C28.2343 24.5327 30.3266 24.4242 31.2688 24.3707C33.9744 24.2174 34.6591 24.1821 36.0163 24.1264C37.351 24.0716 39.8048 23.9415 42.5258 23.7813C43.4142 23.729 44.7827 23.6631 45.567 23.6348C46.3513 23.6065 47.3424 23.5637 47.7695 23.5399C48.1966 23.516 49.6031 23.4498 50.8952 23.3928C52.1873 23.336 53.9493 23.2477 54.8107 23.1967C55.6721 23.1457 56.8835 23.0787 57.5026 23.0478C58.1217 23.0168 58.8926 22.9726 59.2156 22.9495C59.5387 22.9264 60.3536 22.882 61.0266 22.8506C65.4149 22.6468 66.5977 22.5474 66.7989 22.3653C67.0619 22.1272 67.0683 21.5269 66.8102 21.2933C66.6521 21.1502 66.4529 21.1276 65.5388 21.1487C64.9425 21.1625 64.4225 21.1415 64.3831 21.1022C64.3438 21.0627 64.2376 20.5374 64.1471 19.9346C63.9636 18.7109 63.9276 18.5378 63.7262 17.9087C63.6486 17.6664 63.5337 17.27 63.471 17.0277C63.4081 16.7854 63.317 16.5108 63.2685 16.4173C63.2198 16.3238 63.1801 16.1974 63.1801 16.1366C63.1801 15.9072 62.2488 13.8317 61.7617 12.9755C61.1169 11.8421 60.5494 10.9696 60.2569 10.6616C60.1309 10.5289 59.9115 10.2661 59.7694 10.0777C59.1678 9.27972 57.9438 8.05672 56.9437 7.25414C56.1665 6.6304 54.0211 5.21789 53.3913 4.91522C50.6127 3.58004 48.0152 2.89522 45.2341 2.76483C44.3564 2.72362 43.9368 2.66479 43.8415 2.56954C43.7592 2.48732 43.7019 2.21157 43.6969 1.87494C43.6781 0.60759 43.6502 0.405843 43.4651 0.201357C43.2086 -0.0820271 42.7723 -0.0643094 42.4661 0.24198ZM34.6928 7.26344C34.6916 7.33079 34.5044 7.67838 34.2768 8.03606C33.6521 9.01738 32.4437 11.2866 32.4436 11.4789C32.4435 11.5227 32.3333 11.7993 32.1987 12.0936C32.0641 12.3878 31.954 12.6845 31.954 12.753C31.954 12.8213 31.9131 12.9192 31.8631 12.9703C31.7311 13.1052 31.1131 15.5487 30.9359 16.6362C30.7838 17.569 30.7283 18.1246 30.6328 19.6707C30.5481 21.0425 30.2972 21.2325 28.5359 21.2593C27.1697 21.2801 26.9205 21.1753 26.6733 20.4758C26.4897 19.9564 26.6165 19.2719 27.2573 17.3214C27.7828 15.7218 27.8957 15.4399 28.4522 14.3358C29.3372 12.58 30.1083 11.4051 31.2787 10.0288C32.8626 8.16625 34.7028 6.67572 34.6928 7.26344ZM48.2523 26.8867C46.6318 26.9259 42.3166 27.1232 40.1276 27.2583C38.3433 27.3684 37.5484 27.4128 34.8906 27.5508C33.3563 27.6304 31.5723 27.7384 30.9262 27.7909C30.2801 27.8434 28.4961 27.9349 26.9618 27.9943C25.4274 28.0538 24.1112 28.1223 24.037 28.1464C23.8982 28.1917 23.9083 28.3514 24.114 29.3615C24.266 30.1083 24.6989 31.5366 24.908 31.9815C25.0173 32.214 25.1775 32.5896 25.2638 32.8162C25.7048 33.9727 26.6484 35.6088 27.4984 36.6906C27.7575 37.0205 27.9768 37.2904 27.9857 37.2904C27.9946 37.2904 28.2193 37.1857 28.4852 37.0579C29.8421 36.4053 30.4802 36.1208 30.9097 35.9771C32.2996 35.5124 34.6228 35.2115 36.2076 35.2913C37.6816 35.3654 45.4092 35.3632 46.4903 35.2882C47.6211 35.2099 48.2861 35.0761 48.9375 34.796C49.1528 34.7034 49.8136 34.4297 50.4058 34.1879C50.998 33.9462 51.5266 33.7134 51.5804 33.6706C51.6343 33.6278 52.1938 33.3693 52.8238 33.0961C53.4537 32.8229 54.0484 32.5559 54.1453 32.5027C54.3558 32.387 55.1206 32.0401 56.9642 31.224C57.718 30.8903 58.5549 30.5134 58.8241 30.3865C59.0933 30.2594 59.5778 30.0382 59.9008 29.8948C60.5464 29.6082 61.3375 29.2422 62.5624 28.6635C63.0034 28.4552 63.3916 28.2847 63.4252 28.2847C63.5646 28.2847 64.5374 27.7978 64.5998 27.6968C64.6371 27.6365 64.5861 27.4958 64.4867 27.3841C64.0455 26.8887 63.1856 26.7885 62.0477 27.1001C61.0669 27.3687 59.7366 27.7799 59.5093 27.8849C59.4016 27.9345 58.9611 28.0883 58.5304 28.2264C57.3337 28.6103 54.7049 29.5297 54.3465 29.6897C54.1711 29.768 53.8074 29.9064 53.5382 29.9974C53.269 30.0882 52.6082 30.3159 52.0699 30.5034C50.9959 30.8773 47.6929 31.584 46.5799 31.6782C45.7195 31.7509 45.4144 31.682 45.2092 31.3689C44.8544 30.8274 45.1202 30.079 45.7541 29.8345C46.0942 29.7032 47.4941 29.4634 47.9324 29.4612C48.2964 29.4594 50.5315 29.1025 51.92 28.8243C52.9009 28.6279 53.6325 28.2504 53.8271 27.8403C54.0174 27.4394 54.0164 27.3567 53.8183 27.0543L53.6581 26.8097L51.3956 26.8375C50.1514 26.8528 48.7368 26.875 48.2523 26.8867Z" fill="#EF4444"/>
<path d="M13.3878 56.154V70.6995H11.044L4.19034 60.7918H4.0696V70.6995H1.43466V56.154H3.79261L10.6392 66.0688H10.767V56.154H13.3878ZM20.4038 70.9125C19.3384 70.9125 18.4151 70.6782 17.6339 70.2094C16.8526 69.7407 16.2466 69.0849 15.8157 68.2421C15.3896 67.3993 15.1765 66.4144 15.1765 65.2875C15.1765 64.1606 15.3896 63.1734 15.8157 62.3259C16.2466 61.4783 16.8526 60.8202 17.6339 60.3515C18.4151 59.8827 19.3384 59.6483 20.4038 59.6483C21.4691 59.6483 22.3924 59.8827 23.1737 60.3515C23.9549 60.8202 24.5586 61.4783 24.9847 62.3259C25.4156 63.1734 25.631 64.1606 25.631 65.2875C25.631 66.4144 25.4156 67.3993 24.9847 68.2421C24.5586 69.0849 23.9549 69.7407 23.1737 70.2094C22.3924 70.6782 21.4691 70.9125 20.4038 70.9125ZM20.418 68.8529C20.9956 68.8529 21.4786 68.6943 21.8668 68.377C22.2551 68.055 22.5439 67.6242 22.7333 67.0844C22.9274 66.5446 23.0245 65.9433 23.0245 65.2804C23.0245 64.6128 22.9274 64.0091 22.7333 63.4693C22.5439 62.9248 22.2551 62.4916 21.8668 62.1696C21.4786 61.8477 20.9956 61.6867 20.418 61.6867C19.8261 61.6867 19.3337 61.8477 18.9407 62.1696C18.5524 62.4916 18.2612 62.9248 18.0671 63.4693C17.8777 64.0091 17.783 64.6128 17.783 65.2804C17.783 65.9433 17.8777 66.5446 18.0671 67.0844C18.2612 67.6242 18.5524 68.055 18.9407 68.377C19.3337 68.6943 19.8261 68.8529 20.418 68.8529ZM27.3132 70.6995V59.7904H29.7706V61.6441H29.8984C30.1257 61.0191 30.5021 60.5314 31.0277 60.181C31.5533 59.8259 32.1806 59.6483 32.9098 59.6483C33.6484 59.6483 34.2711 59.8283 34.7777 60.1881C35.2891 60.5432 35.6489 61.0285 35.8572 61.6441H35.9709C36.2124 61.038 36.6196 60.555 37.1925 60.1952C37.7701 59.8306 38.4543 59.6483 39.245 59.6483C40.2488 59.6483 41.0679 59.9656 41.7024 60.6C42.3369 61.2345 42.6541 62.1602 42.6541 63.377V70.6995H40.076V63.7747C40.076 63.0977 39.8961 62.6029 39.5362 62.2904C39.1764 61.9731 38.736 61.8145 38.2152 61.8145C37.5949 61.8145 37.1096 62.0086 36.7592 62.3969C36.4136 62.7804 36.2408 63.28 36.2408 63.8955V70.6995H33.7195V63.6682C33.7195 63.1048 33.549 62.655 33.2081 62.3188C32.8719 61.9826 32.4316 61.8145 31.8871 61.8145C31.5178 61.8145 31.1816 61.9092 30.8786 62.0986C30.5755 62.2833 30.334 62.5461 30.1541 62.887C29.9742 63.2231 29.8842 63.6161 29.8842 64.0659V70.6995H27.3132Z" fill="#FAFAFA"/>
<path d="M56.8292 56.154V70.6995H54.4854L47.6317 60.7918H47.511V70.6995H44.8761V56.154H47.234L54.0806 66.0688H54.2085V56.154H56.8292ZM63.8452 70.9125C62.7798 70.9125 61.8565 70.6782 61.0753 70.2094C60.294 69.7407 59.688 69.0849 59.2571 68.2421C58.831 67.3993 58.6179 66.4144 58.6179 65.2875C58.6179 64.1606 58.831 63.1734 59.2571 62.3259C59.688 61.4783 60.294 60.8202 61.0753 60.3515C61.8565 59.8827 62.7798 59.6483 63.8452 59.6483C64.9105 59.6483 65.8338 59.8827 66.6151 60.3515C67.3963 60.8202 68 61.4783 68.4261 62.3259C68.857 63.1734 69.0724 64.1606 69.0724 65.2875C69.0724 66.4144 68.857 67.3993 68.4261 68.2421C68 69.0849 67.3963 69.7407 66.6151 70.2094C65.8338 70.6782 64.9105 70.9125 63.8452 70.9125ZM63.8594 68.8529C64.437 68.8529 64.92 68.6943 65.3082 68.377C65.6965 68.055 65.9853 67.6242 66.1747 67.0844C66.3688 66.5446 66.4659 65.9433 66.4659 65.2804C66.4659 64.6128 66.3688 64.0091 66.1747 63.4693C65.9853 62.9248 65.6965 62.4916 65.3082 62.1696C64.92 61.8477 64.437 61.6867 63.8594 61.6867C63.2675 61.6867 62.7751 61.8477 62.3821 62.1696C61.9938 62.4916 61.7027 62.9248 61.5085 63.4693C61.3191 64.0091 61.2244 64.6128 61.2244 65.2804C61.2244 65.9433 61.3191 66.5446 61.5085 67.0844C61.7027 67.6242 61.9938 68.055 62.3821 68.377C62.7751 68.6943 63.2675 68.8529 63.8594 68.8529ZM70.7546 70.6995V59.7904H73.212V61.6441H73.3398C73.5671 61.0191 73.9435 60.5314 74.4691 60.181C74.9947 59.8259 75.622 59.6483 76.3512 59.6483C77.0898 59.6483 77.7125 59.8283 78.2191 60.1881C78.7305 60.5432 79.0903 61.0285 79.2987 61.6441H79.4123C79.6538 61.038 80.061 60.555 80.6339 60.1952C81.2115 59.8306 81.8957 59.6483 82.6864 59.6483C83.6902 59.6483 84.5094 59.9656 85.1438 60.6C85.7783 61.2345 86.0955 62.1602 86.0955 63.377V70.6995H83.5174V63.7747C83.5174 63.0977 83.3375 62.6029 82.9776 62.2904C82.6178 61.9731 82.1774 61.8145 81.6566 61.8145C81.0363 61.8145 80.551 62.0086 80.2006 62.3969C79.855 62.7804 79.6822 63.28 79.6822 63.8955V70.6995H77.1609V63.6682C77.1609 63.1048 76.9904 62.655 76.6495 62.3188C76.3133 61.9826 75.873 61.8145 75.3285 61.8145C74.9592 61.8145 74.623 61.9092 74.32 62.0986C74.0169 62.2833 73.7754 62.5461 73.5955 62.887C73.4156 63.2231 73.3256 63.6161 73.3256 64.0659V70.6995H70.7546Z" fill="#EF4444"/>
<path d="M11.2221 83.154C11.171 82.7222 10.9636 82.387 10.6 82.1483C10.2363 81.9097 9.79031 81.7904 9.2619 81.7904C8.87553 81.7904 8.53746 81.8529 8.24769 81.9779C7.96076 82.1029 7.73633 82.2747 7.5744 82.4935C7.41531 82.7122 7.33576 82.9608 7.33576 83.2392C7.33576 83.4722 7.39116 83.6725 7.50195 83.8401C7.61559 84.0049 7.76048 84.1426 7.93661 84.2534C8.11275 84.3614 8.29741 84.4509 8.49059 84.5219C8.68377 84.5901 8.86133 84.6455 9.02326 84.6881L9.90962 84.9267C10.1369 84.9864 10.3897 85.0688 10.6681 85.1739C10.9494 85.279 11.2179 85.4225 11.4735 85.6043C11.7321 85.7833 11.9451 86.0134 12.1127 86.2946C12.2804 86.5759 12.3642 86.9211 12.3642 87.3301C12.3642 87.8017 12.2406 88.2279 11.9934 88.6086C11.7491 88.9892 11.3912 89.2918 10.9196 89.5162C10.4508 89.7407 9.88121 89.8529 9.21076 89.8529C8.58576 89.8529 8.04457 89.752 7.58718 89.5503C7.13263 89.3486 6.77468 89.0674 6.51332 88.7066C6.25479 88.3458 6.10849 87.9267 6.0744 87.4495H7.16531C7.19371 87.779 7.30451 88.0517 7.49769 88.2676C7.69371 88.4807 7.94087 88.6398 8.23917 88.7449C8.54031 88.8472 8.86417 88.8983 9.21076 88.8983C9.61417 88.8983 9.97639 88.833 10.2974 88.7023C10.6184 88.5688 10.8727 88.3841 11.0602 88.1483C11.2477 87.9097 11.3414 87.6313 11.3414 87.3131C11.3414 87.0233 11.2605 86.7875 11.0985 86.6057C10.9366 86.4239 10.7235 86.2762 10.4593 86.1625C10.1951 86.0489 9.90962 85.9495 9.60281 85.8642L8.52894 85.5574C7.84712 85.3614 7.30735 85.0816 6.90962 84.7179C6.5119 84.3543 6.31303 83.8784 6.31303 83.2904C6.31303 82.8017 6.44513 82.3756 6.70934 82.012C6.97638 81.6455 7.33434 81.3614 7.7832 81.1597C8.23491 80.9551 8.73917 80.8529 9.29599 80.8529C9.85849 80.8529 10.3585 80.9537 10.796 81.1554C11.2335 81.3543 11.5801 81.627 11.8358 81.9736C12.0943 82.3202 12.2306 82.7137 12.2449 83.154H11.2221ZM15.4483 89.6995L13.454 83.154H14.5108L15.9256 88.1654H15.9938L17.3915 83.154H18.4654L19.8461 88.1483H19.9142L21.329 83.154H22.3858L20.3915 89.6995H19.4029L17.9711 84.6711H17.8688L16.437 89.6995H15.4483ZM23.7154 89.6995V83.154H24.7211V89.6995H23.7154ZM24.2267 82.0631C24.0307 82.0631 23.8617 81.9963 23.7196 81.8628C23.5804 81.7293 23.5108 81.5688 23.5108 81.3813C23.5108 81.1938 23.5804 81.0333 23.7196 80.8997C23.8617 80.7662 24.0307 80.6995 24.2267 80.6995C24.4228 80.6995 24.5904 80.7662 24.7296 80.8997C24.8716 81.0333 24.9426 81.1938 24.9426 81.3813C24.9426 81.5688 24.8716 81.7293 24.7296 81.8628C24.5904 81.9963 24.4228 82.0631 24.2267 82.0631ZM29.4778 83.154V84.0063H25.9494V83.154H29.4778ZM27.0062 89.6995V82.2506C27.0062 81.8756 27.0943 81.5631 27.2704 81.3131C27.4466 81.0631 27.6752 80.8756 27.9565 80.7506C28.2377 80.6256 28.5346 80.5631 28.8471 80.5631C29.0943 80.5631 29.296 80.583 29.4522 80.6228C29.6085 80.6625 29.725 80.6995 29.8017 80.7336L29.5119 81.6029C29.4608 81.5858 29.3897 81.5645 29.2988 81.539C29.2108 81.5134 29.0943 81.5006 28.9494 81.5006C28.617 81.5006 28.377 81.5844 28.2292 81.752C28.0843 81.9196 28.0119 82.1654 28.0119 82.4892V89.6995H27.0062ZM33.7338 83.154V84.0063H30.3418V83.154H33.7338ZM31.3304 81.5858H32.3361V87.8245C32.3361 88.1086 32.3773 88.3216 32.4597 88.4637C32.5449 88.6029 32.6529 88.6966 32.7836 88.7449C32.9171 88.7904 33.0577 88.8131 33.2054 88.8131C33.3162 88.8131 33.4071 88.8074 33.4782 88.7961C33.5492 88.7818 33.606 88.7705 33.6486 88.762L33.8532 89.6654C33.785 89.6909 33.6898 89.7165 33.5676 89.7421C33.4455 89.7705 33.2907 89.7847 33.1032 89.7847C32.8191 89.7847 32.5407 89.7236 32.2679 89.6015C31.998 89.4793 31.7736 89.2932 31.5946 89.0432C31.4185 88.7932 31.3304 88.4779 31.3304 88.0972V81.5858ZM41.0932 89.8358C40.5478 89.8358 40.0662 89.698 39.6486 89.4225C39.231 89.1441 38.9043 88.752 38.6685 88.2463C38.4327 87.7378 38.3148 87.137 38.3148 86.4438C38.3148 85.7563 38.4327 85.1597 38.6685 84.654C38.9043 84.1483 39.2324 83.7577 39.6529 83.4821C40.0733 83.2066 40.5591 83.0688 41.1103 83.0688C41.5364 83.0688 41.873 83.1398 42.1202 83.2818C42.3702 83.4211 42.5605 83.5801 42.6912 83.7591C42.8248 83.9353 42.9284 84.0801 43.0023 84.1938H43.0875V80.9722H44.0932V89.6995H43.1216V88.6938H43.0023C42.9284 88.8131 42.8233 88.9637 42.687 89.1455C42.5506 89.3245 42.356 89.485 42.1032 89.627C41.8503 89.7662 41.5137 89.8358 41.0932 89.8358ZM41.2296 88.9324C41.633 88.9324 41.9739 88.8273 42.2523 88.6171C42.5307 88.404 42.7424 88.11 42.8873 87.735C43.0321 87.3571 43.1046 86.9211 43.1046 86.4267C43.1046 85.9381 43.0336 85.5105 42.8915 85.1441C42.7495 84.7747 42.5392 84.4878 42.2608 84.2833C41.9824 84.0759 41.6387 83.9722 41.2296 83.9722C40.8034 83.9722 40.4483 84.0816 40.1642 84.3003C39.883 84.5162 39.6713 84.8103 39.5293 85.1824C39.3901 85.5517 39.3205 85.9665 39.3205 86.4267C39.3205 86.8926 39.3915 87.3159 39.5336 87.6966C39.6784 88.0745 39.8915 88.3756 40.1728 88.6C40.4569 88.8216 40.8091 88.9324 41.2296 88.9324ZM48.8191 89.8358C48.1884 89.8358 47.6444 89.6966 47.187 89.4182C46.7324 89.137 46.3816 88.7449 46.1344 88.2421C45.8901 87.7364 45.7679 87.1483 45.7679 86.4779C45.7679 85.8074 45.8901 85.2165 46.1344 84.7051C46.3816 84.1909 46.7253 83.7904 47.1657 83.5034C47.6088 83.2137 48.1259 83.0688 48.7168 83.0688C49.0577 83.0688 49.3944 83.1256 49.7267 83.2392C50.0591 83.3529 50.3617 83.5375 50.6344 83.7932C50.9071 84.0461 51.1245 84.3813 51.2864 84.7989C51.4483 85.2165 51.5293 85.7307 51.5293 86.3415V86.7676H46.4838V85.8983H50.5066C50.5066 85.529 50.4327 85.1995 50.285 84.9097C50.1401 84.6199 49.9327 84.3912 49.6628 84.2236C49.3958 84.056 49.0804 83.9722 48.7168 83.9722C48.3162 83.9722 47.9696 84.0716 47.677 84.2705C47.3873 84.4665 47.1642 84.7222 47.008 85.0375C46.8517 85.3529 46.7736 85.6909 46.7736 86.0517V86.6313C46.7736 87.1256 46.8588 87.5446 47.0293 87.8884C47.2026 88.2293 47.4426 88.4892 47.7495 88.6682C48.0563 88.8443 48.4128 88.9324 48.8191 88.9324C49.0833 88.9324 49.3219 88.8955 49.535 88.8216C49.7509 88.7449 49.937 88.6313 50.0932 88.4807C50.2495 88.3273 50.3702 88.137 50.4554 87.9097L51.427 88.1824C51.3248 88.512 51.1529 88.8017 50.9114 89.0517C50.6699 89.2989 50.3716 89.4921 50.0165 89.6313C49.6614 89.7676 49.2623 89.8358 48.8191 89.8358ZM54.0648 80.9722V89.6995H53.0591V80.9722H54.0648ZM55.9068 89.6995V83.154H56.9125V89.6995H55.9068ZM56.4181 82.0631C56.2221 82.0631 56.0531 81.9963 55.911 81.8628C55.7718 81.7293 55.7022 81.5688 55.7022 81.3813C55.7022 81.1938 55.7718 81.0333 55.911 80.8997C56.0531 80.7662 56.2221 80.6995 56.4181 80.6995C56.6142 80.6995 56.7818 80.7662 56.921 80.8997C57.063 81.0333 57.1341 81.1938 57.1341 81.3813C57.1341 81.5688 57.063 81.7293 56.921 81.8628C56.7818 81.9963 56.6142 82.0631 56.4181 82.0631ZM64.1067 83.154L61.6863 89.6995H60.6635L58.2431 83.154H59.334L61.1408 88.3699H61.209L63.0158 83.154H64.1067ZM67.9441 89.8358C67.3134 89.8358 66.7694 89.6966 66.312 89.4182C65.8574 89.137 65.5066 88.7449 65.2594 88.2421C65.0151 87.7364 64.8929 87.1483 64.8929 86.4779C64.8929 85.8074 65.0151 85.2165 65.2594 84.7051C65.5066 84.1909 65.8503 83.7904 66.2907 83.5034C66.7338 83.2137 67.2509 83.0688 67.8418 83.0688C68.1827 83.0688 68.5194 83.1256 68.8517 83.2392C69.1841 83.3529 69.4867 83.5375 69.7594 83.7932C70.0321 84.0461 70.2495 84.3813 70.4114 84.7989C70.5733 85.2165 70.6543 85.7307 70.6543 86.3415V86.7676H65.6088V85.8983H69.6316C69.6316 85.529 69.5577 85.1995 69.41 84.9097C69.2651 84.6199 69.0577 84.3912 68.7878 84.2236C68.5208 84.056 68.2054 83.9722 67.8418 83.9722C67.4412 83.9722 67.0946 84.0716 66.802 84.2705C66.5123 84.4665 66.2892 84.7222 66.133 85.0375C65.9767 85.3529 65.8986 85.6909 65.8986 86.0517V86.6313C65.8986 87.1256 65.9838 87.5446 66.1543 87.8884C66.3276 88.2293 66.5676 88.4892 66.8745 88.6682C67.1813 88.8443 67.5378 88.9324 67.9441 88.9324C68.2083 88.9324 68.4469 88.8955 68.66 88.8216C68.8759 88.7449 69.062 88.6313 69.2182 88.4807C69.3745 88.3273 69.4952 88.137 69.5804 87.9097L70.552 88.1824C70.4498 88.512 70.2779 88.8017 70.0364 89.0517C69.7949 89.2989 69.4966 89.4921 69.1415 89.6313C68.7864 89.7676 68.3873 89.8358 67.9441 89.8358ZM72.1841 89.6995V83.154H73.1557V84.1426H73.2239C73.3432 83.8188 73.5591 83.556 73.8716 83.3543C74.1841 83.1526 74.5364 83.0517 74.9284 83.0517C75.0023 83.0517 75.0946 83.0532 75.2054 83.056C75.3162 83.0588 75.4 83.0631 75.4569 83.0688V84.0915C75.4228 84.083 75.3446 84.0702 75.2225 84.0532C75.1032 84.0333 74.9767 84.0233 74.8432 84.0233C74.525 84.0233 74.2409 84.0901 73.9909 84.2236C73.7438 84.3543 73.5478 84.5361 73.4029 84.7691C73.2608 84.9992 73.1898 85.262 73.1898 85.5574V89.6995H72.1841ZM77.4959 92.154C77.3255 92.154 77.1735 92.1398 77.04 92.1114C76.9064 92.0858 76.8141 92.0603 76.763 92.0347L77.0186 91.1483C77.263 91.2108 77.4789 91.2336 77.6664 91.2165C77.8539 91.1995 78.0201 91.1157 78.165 90.9651C78.3127 90.8174 78.4476 90.5773 78.5698 90.2449L78.7573 89.7336L76.3368 83.154H77.4277L79.2346 88.3699H79.3027L81.1096 83.154H82.2005L79.4221 90.654C79.2971 90.9921 79.1422 91.2719 78.9576 91.4935C78.7729 91.7179 78.5584 91.8841 78.3141 91.9921C78.0726 92.1 77.7999 92.154 77.4959 92.154Z" fill="#F4F4F5"/>
</svg>
